<mxfile host="app.diagrams.net" modified="2021-12-21T12:44:22.609Z" agent="5.0 (Windows)" etag="iJyY_X_qpnsypBy3-V2J" version="16.0.0" type="github" pages="2">
  <diagram id="kEtk70t6EcMc8KrhRpkO" name="Payment">
    <mxGraphModel dx="1329" dy="1138" grid="1" gridSize="10" guides="1" tooltips="1" connect="1" arrows="1" fold="1" page="1" pageScale="1" pageWidth="827" pageHeight="1169" math="0" shadow="0">
      <root>
        <mxCell id="iEjaclmm431INqXe0u---0" />
        <mxCell id="iEjaclmm431INqXe0u---1" parent="iEjaclmm431INqXe0u---0" />
        <mxCell id="iEjaclmm431INqXe0u---5" style="edgeStyle=orthogonalEdgeStyle;rounded=0;orthogonalLoop=1;jettySize=auto;html=1;exitX=0.5;exitY=1;exitDx=0;exitDy=0;entryX=0.5;entryY=0;entryDx=0;entryDy=0;" parent="iEjaclmm431INqXe0u---1" source="iEjaclmm431INqXe0u---6" target="iEjaclmm431INqXe0u---27" edge="1">
          <mxGeometry relative="1" as="geometry">
            <mxPoint x="142" y="230" as="targetPoint" />
          </mxGeometry>
        </mxCell>
        <mxCell id="iEjaclmm431INqXe0u---6" value="&lt;span style=&quot;font-family: &amp;#34;helvetica&amp;#34;&quot;&gt;Choose Creditor, amount of transfer and fee&lt;/span&gt;" style="rounded=0;whiteSpace=wrap;html=1;" parent="iEjaclmm431INqXe0u---1" vertex="1">
          <mxGeometry x="342" y="160" width="120" height="60" as="geometry" />
        </mxCell>
        <mxCell id="iEjaclmm431INqXe0u---7" value="" style="edgeStyle=orthogonalEdgeStyle;rounded=0;orthogonalLoop=1;jettySize=auto;html=1;" parent="iEjaclmm431INqXe0u---1" source="iEjaclmm431INqXe0u---9" target="iEjaclmm431INqXe0u---12" edge="1">
          <mxGeometry relative="1" as="geometry" />
        </mxCell>
        <mxCell id="iEjaclmm431INqXe0u---8" value="" style="edgeStyle=orthogonalEdgeStyle;rounded=0;orthogonalLoop=1;jettySize=auto;html=1;" parent="iEjaclmm431INqXe0u---1" source="iEjaclmm431INqXe0u---9" target="iEjaclmm431INqXe0u---13" edge="1">
          <mxGeometry relative="1" as="geometry" />
        </mxCell>
        <mxCell id="iEjaclmm431INqXe0u---9" value="Transfer the amount from Deptor to Creditor" style="whiteSpace=wrap;html=1;" parent="iEjaclmm431INqXe0u---1" vertex="1">
          <mxGeometry x="342" y="860" width="120" height="60" as="geometry" />
        </mxCell>
        <mxCell id="Wry9TsZOiSdBmDN1ZbGJ-3" style="edgeStyle=orthogonalEdgeStyle;rounded=0;orthogonalLoop=1;jettySize=auto;html=1;exitX=0.5;exitY=0;exitDx=0;exitDy=0;entryX=1;entryY=0.5;entryDx=0;entryDy=0;" parent="iEjaclmm431INqXe0u---1" source="iEjaclmm431INqXe0u---10" target="iEjaclmm431INqXe0u---6" edge="1">
          <mxGeometry relative="1" as="geometry" />
        </mxCell>
        <mxCell id="iEjaclmm431INqXe0u---10" value="Transfer rejected" style="whiteSpace=wrap;html=1;" parent="iEjaclmm431INqXe0u---1" vertex="1">
          <mxGeometry x="512" y="510" width="120" height="60" as="geometry" />
        </mxCell>
        <mxCell id="iEjaclmm431INqXe0u---12" value="&lt;font style=&quot;font-size: 14px&quot;&gt;&lt;span style=&quot;font-family: &amp;#34;arial&amp;#34; ; color: rgb(0 , 0 , 0) ; background-color: transparent ; font-style: normal ; font-variant: normal ; text-decoration: none ; vertical-align: baseline&quot;&gt;Exchange is saved to log file&lt;/span&gt;&lt;/font&gt;" style="whiteSpace=wrap;html=1;" parent="iEjaclmm431INqXe0u---1" vertex="1">
          <mxGeometry x="262" y="980" width="120" height="60" as="geometry" />
        </mxCell>
        <mxCell id="iEjaclmm431INqXe0u---13" value="&lt;font style=&quot;font-size: 14px&quot;&gt;Update Accounts&lt;/font&gt;" style="whiteSpace=wrap;html=1;" parent="iEjaclmm431INqXe0u---1" vertex="1">
          <mxGeometry x="422" y="980" width="120" height="60" as="geometry" />
        </mxCell>
        <mxCell id="iEjaclmm431INqXe0u---14" value="Payment Queue" style="whiteSpace=wrap;html=1;rounded=0;" parent="iEjaclmm431INqXe0u---1" vertex="1">
          <mxGeometry x="342" y="360" width="120" height="60" as="geometry" />
        </mxCell>
        <mxCell id="iEjaclmm431INqXe0u---15" value="Account LookUp" style="rhombus;whiteSpace=wrap;html=1;" parent="iEjaclmm431INqXe0u---1" vertex="1">
          <mxGeometry x="362" y="440" width="80" height="80" as="geometry" />
        </mxCell>
        <mxCell id="iEjaclmm431INqXe0u---16" value="Balance Inquiry" style="rhombus;whiteSpace=wrap;html=1;" parent="iEjaclmm431INqXe0u---1" vertex="1">
          <mxGeometry x="362" y="560" width="80" height="80" as="geometry" />
        </mxCell>
        <mxCell id="iEjaclmm431INqXe0u---17" value="Remove fee from the debtor" style="whiteSpace=wrap;html=1;" parent="iEjaclmm431INqXe0u---1" vertex="1">
          <mxGeometry x="342" y="680" width="120" height="60" as="geometry" />
        </mxCell>
        <mxCell id="iEjaclmm431INqXe0u---18" value="" style="endArrow=classic;html=1;rounded=0;exitX=0.5;exitY=1;exitDx=0;exitDy=0;entryX=0.5;entryY=0;entryDx=0;entryDy=0;" parent="iEjaclmm431INqXe0u---1" source="iEjaclmm431INqXe0u---14" target="iEjaclmm431INqXe0u---15" edge="1">
          <mxGeometry width="50" height="50" relative="1" as="geometry">
            <mxPoint x="362" y="490" as="sourcePoint" />
            <mxPoint x="412" y="440" as="targetPoint" />
          </mxGeometry>
        </mxCell>
        <mxCell id="iEjaclmm431INqXe0u---19" value="No" style="endArrow=classic;html=1;rounded=0;exitX=1;exitY=0.5;exitDx=0;exitDy=0;entryX=0;entryY=0.5;entryDx=0;entryDy=0;" parent="iEjaclmm431INqXe0u---1" source="iEjaclmm431INqXe0u---15" target="iEjaclmm431INqXe0u---10" edge="1">
          <mxGeometry width="50" height="50" relative="1" as="geometry">
            <mxPoint x="362" y="560" as="sourcePoint" />
            <mxPoint x="412" y="510" as="targetPoint" />
          </mxGeometry>
        </mxCell>
        <mxCell id="iEjaclmm431INqXe0u---20" value="Yes" style="endArrow=classic;html=1;rounded=0;exitX=0.5;exitY=1;exitDx=0;exitDy=0;" parent="iEjaclmm431INqXe0u---1" source="iEjaclmm431INqXe0u---15" target="iEjaclmm431INqXe0u---16" edge="1">
          <mxGeometry width="50" height="50" relative="1" as="geometry">
            <mxPoint x="362" y="560" as="sourcePoint" />
            <mxPoint x="412" y="510" as="targetPoint" />
          </mxGeometry>
        </mxCell>
        <mxCell id="iEjaclmm431INqXe0u---21" value="No" style="endArrow=classic;html=1;rounded=0;exitX=1;exitY=0.5;exitDx=0;exitDy=0;entryX=0;entryY=0.5;entryDx=0;entryDy=0;" parent="iEjaclmm431INqXe0u---1" source="iEjaclmm431INqXe0u---16" target="iEjaclmm431INqXe0u---10" edge="1">
          <mxGeometry width="50" height="50" relative="1" as="geometry">
            <mxPoint x="362" y="560" as="sourcePoint" />
            <mxPoint x="412" y="510" as="targetPoint" />
          </mxGeometry>
        </mxCell>
        <mxCell id="iEjaclmm431INqXe0u---22" value="Yes" style="endArrow=classic;html=1;rounded=0;exitX=0.5;exitY=1;exitDx=0;exitDy=0;" parent="iEjaclmm431INqXe0u---1" source="iEjaclmm431INqXe0u---16" target="iEjaclmm431INqXe0u---17" edge="1">
          <mxGeometry width="50" height="50" relative="1" as="geometry">
            <mxPoint x="402" y="680" as="sourcePoint" />
            <mxPoint x="412" y="530" as="targetPoint" />
          </mxGeometry>
        </mxCell>
        <mxCell id="iEjaclmm431INqXe0u---29" style="edgeStyle=orthogonalEdgeStyle;rounded=0;orthogonalLoop=1;jettySize=auto;html=1;exitX=0.5;exitY=1;exitDx=0;exitDy=0;entryX=0.5;entryY=0;entryDx=0;entryDy=0;" parent="iEjaclmm431INqXe0u---1" source="iEjaclmm431INqXe0u---24" target="iEjaclmm431INqXe0u---9" edge="1">
          <mxGeometry relative="1" as="geometry" />
        </mxCell>
        <mxCell id="iEjaclmm431INqXe0u---24" value="Transfer this fee to Bank&#39;s Account" style="whiteSpace=wrap;html=1;" parent="iEjaclmm431INqXe0u---1" vertex="1">
          <mxGeometry x="342" y="770" width="120" height="60" as="geometry" />
        </mxCell>
        <mxCell id="iEjaclmm431INqXe0u---25" value="" style="endArrow=classic;html=1;rounded=0;entryX=0.5;entryY=0;entryDx=0;entryDy=0;exitX=0.5;exitY=1;exitDx=0;exitDy=0;" parent="iEjaclmm431INqXe0u---1" source="iEjaclmm431INqXe0u---17" target="iEjaclmm431INqXe0u---24" edge="1">
          <mxGeometry width="50" height="50" relative="1" as="geometry">
            <mxPoint x="362" y="870" as="sourcePoint" />
            <mxPoint x="412" y="820" as="targetPoint" />
          </mxGeometry>
        </mxCell>
        <mxCell id="Wry9TsZOiSdBmDN1ZbGJ-2" value="No" style="edgeStyle=orthogonalEdgeStyle;rounded=0;orthogonalLoop=1;jettySize=auto;html=1;exitX=1;exitY=0.5;exitDx=0;exitDy=0;entryX=1;entryY=0.75;entryDx=0;entryDy=0;" parent="iEjaclmm431INqXe0u---1" source="iEjaclmm431INqXe0u---27" target="iEjaclmm431INqXe0u---6" edge="1">
          <mxGeometry relative="1" as="geometry" />
        </mxCell>
        <mxCell id="iEjaclmm431INqXe0u---27" value="Validate Transaction Data" style="rhombus;whiteSpace=wrap;html=1;" parent="iEjaclmm431INqXe0u---1" vertex="1">
          <mxGeometry x="362" y="240" width="80" height="80" as="geometry" />
        </mxCell>
        <mxCell id="iEjaclmm431INqXe0u---28" value="Yes" style="endArrow=classic;html=1;rounded=0;exitX=0.5;exitY=1;exitDx=0;exitDy=0;entryX=0.5;entryY=0;entryDx=0;entryDy=0;" parent="iEjaclmm431INqXe0u---1" source="iEjaclmm431INqXe0u---27" target="iEjaclmm431INqXe0u---14" edge="1">
          <mxGeometry width="50" height="50" relative="1" as="geometry">
            <mxPoint x="362" y="370" as="sourcePoint" />
            <mxPoint x="412" y="320" as="targetPoint" />
          </mxGeometry>
        </mxCell>
        <mxCell id="3zVLUj8eHwWYS5VKRJCk-0" value="Wrong" style="edgeStyle=orthogonalEdgeStyle;rounded=0;orthogonalLoop=1;jettySize=auto;html=1;exitX=0;exitY=0.5;exitDx=0;exitDy=0;entryX=1;entryY=0.5;entryDx=0;entryDy=0;" parent="iEjaclmm431INqXe0u---1" source="3zVLUj8eHwWYS5VKRJCk-1" target="3zVLUj8eHwWYS5VKRJCk-3" edge="1">
          <mxGeometry relative="1" as="geometry" />
        </mxCell>
        <mxCell id="3zVLUj8eHwWYS5VKRJCk-4" value="Yes" style="edgeStyle=orthogonalEdgeStyle;rounded=0;orthogonalLoop=1;jettySize=auto;html=1;exitX=0.5;exitY=1;exitDx=0;exitDy=0;entryX=0.5;entryY=0;entryDx=0;entryDy=0;" parent="iEjaclmm431INqXe0u---1" source="3zVLUj8eHwWYS5VKRJCk-1" target="iEjaclmm431INqXe0u---6" edge="1">
          <mxGeometry relative="1" as="geometry" />
        </mxCell>
        <mxCell id="3zVLUj8eHwWYS5VKRJCk-1" value="Check&lt;br&gt;username &amp;amp; password" style="rhombus;whiteSpace=wrap;html=1;fillColor=#f8cecc;strokeColor=#b85450;" parent="iEjaclmm431INqXe0u---1" vertex="1">
          <mxGeometry x="352" y="30" width="100" height="80" as="geometry" />
        </mxCell>
        <mxCell id="3zVLUj8eHwWYS5VKRJCk-2" style="edgeStyle=orthogonalEdgeStyle;rounded=0;orthogonalLoop=1;jettySize=auto;html=1;exitX=0.5;exitY=0;exitDx=0;exitDy=0;entryX=0.5;entryY=0;entryDx=0;entryDy=0;" parent="iEjaclmm431INqXe0u---1" source="3zVLUj8eHwWYS5VKRJCk-3" target="3zVLUj8eHwWYS5VKRJCk-1" edge="1">
          <mxGeometry relative="1" as="geometry" />
        </mxCell>
        <mxCell id="3zVLUj8eHwWYS5VKRJCk-3" value="Log-in Screen" style="rounded=0;whiteSpace=wrap;html=1;fillColor=#f8cecc;strokeColor=#b85450;" parent="iEjaclmm431INqXe0u---1" vertex="1">
          <mxGeometry x="152" y="40" width="120" height="60" as="geometry" />
        </mxCell>
        <mxCell id="enLLVWy1Hdl8rnUrBIns-0" value="Edge&lt;br&gt;Integration" style="endArrow=none;html=1;rounded=0;" parent="iEjaclmm431INqXe0u---1" edge="1">
          <mxGeometry x="0.3091" width="50" height="50" relative="1" as="geometry">
            <mxPoint x="152" y="430" as="sourcePoint" />
            <mxPoint x="702" y="430" as="targetPoint" />
            <mxPoint as="offset" />
          </mxGeometry>
        </mxCell>
      </root>
    </mxGraphModel>
  </diagram>
  <diagram id="C5RBs43oDa-KdzZeNtuy" name="Payment &amp; Wallet">
    <mxGraphModel dx="1329" dy="1138" grid="1" gridSize="10" guides="1" tooltips="1" connect="1" arrows="1" fold="1" page="1" pageScale="1" pageWidth="827" pageHeight="1169" math="0" shadow="0">
      <root>
        <mxCell id="WIyWlLk6GJQsqaUBKTNV-0" />
        <mxCell id="WIyWlLk6GJQsqaUBKTNV-1" parent="WIyWlLk6GJQsqaUBKTNV-0" />
        <mxCell id="jiWPsRULAdNwWH0B6eo_-13" value="&lt;div&gt;Card or Wallet &lt;/div&gt;" style="rhombus;whiteSpace=wrap;html=1;" parent="WIyWlLk6GJQsqaUBKTNV-1" vertex="1">
          <mxGeometry x="285" y="156" width="135" height="120" as="geometry" />
        </mxCell>
        <mxCell id="jiWPsRULAdNwWH0B6eo_-16" value="&lt;div&gt;Wallet&lt;/div&gt;&lt;div&gt;&lt;br&gt;&lt;/div&gt;" style="endArrow=classic;html=1;rounded=0;exitX=1;exitY=0.5;exitDx=0;exitDy=0;entryX=0;entryY=0.5;entryDx=0;entryDy=0;" parent="WIyWlLk6GJQsqaUBKTNV-1" source="jiWPsRULAdNwWH0B6eo_-13" target="oGs9uQ9BPyMRuh5oc1LU-45" edge="1">
          <mxGeometry width="50" height="50" relative="1" as="geometry">
            <mxPoint x="420" y="206" as="sourcePoint" />
            <mxPoint x="534" y="206" as="targetPoint" />
          </mxGeometry>
        </mxCell>
        <mxCell id="jiWPsRULAdNwWH0B6eo_-17" value="Card" style="endArrow=classic;html=1;rounded=0;exitX=0;exitY=0.5;exitDx=0;exitDy=0;" parent="WIyWlLk6GJQsqaUBKTNV-1" source="jiWPsRULAdNwWH0B6eo_-13" target="oGs9uQ9BPyMRuh5oc1LU-2" edge="1">
          <mxGeometry width="50" height="50" relative="1" as="geometry">
            <mxPoint x="285" y="206" as="sourcePoint" />
            <mxPoint x="210" y="286" as="targetPoint" />
          </mxGeometry>
        </mxCell>
        <mxCell id="oGs9uQ9BPyMRuh5oc1LU-97" style="edgeStyle=orthogonalEdgeStyle;rounded=0;orthogonalLoop=1;jettySize=auto;html=1;exitX=0.5;exitY=1;exitDx=0;exitDy=0;entryX=0.5;entryY=0;entryDx=0;entryDy=0;" parent="WIyWlLk6GJQsqaUBKTNV-1" source="oGs9uQ9BPyMRuh5oc1LU-2" target="oGs9uQ9BPyMRuh5oc1LU-94" edge="1">
          <mxGeometry relative="1" as="geometry">
            <mxPoint x="160" y="256" as="targetPoint" />
          </mxGeometry>
        </mxCell>
        <mxCell id="oGs9uQ9BPyMRuh5oc1LU-2" value="&lt;span style=&quot;font-family: &amp;#34;helvetica&amp;#34;&quot;&gt;Choose Creditor, amount of transfer and fee&lt;/span&gt;" style="rounded=0;whiteSpace=wrap;html=1;" parent="WIyWlLk6GJQsqaUBKTNV-1" vertex="1">
          <mxGeometry x="100" y="186" width="120" height="60" as="geometry" />
        </mxCell>
        <mxCell id="oGs9uQ9BPyMRuh5oc1LU-27" value="" style="edgeStyle=orthogonalEdgeStyle;rounded=0;orthogonalLoop=1;jettySize=auto;html=1;" parent="WIyWlLk6GJQsqaUBKTNV-1" source="oGs9uQ9BPyMRuh5oc1LU-19" target="oGs9uQ9BPyMRuh5oc1LU-26" edge="1">
          <mxGeometry relative="1" as="geometry" />
        </mxCell>
        <mxCell id="oGs9uQ9BPyMRuh5oc1LU-19" value="Transfer this 3% to Bank&#39;s Account" style="whiteSpace=wrap;html=1;" parent="WIyWlLk6GJQsqaUBKTNV-1" vertex="1">
          <mxGeometry x="630" y="906" width="120" height="60" as="geometry" />
        </mxCell>
        <mxCell id="oGs9uQ9BPyMRuh5oc1LU-69" value="" style="edgeStyle=orthogonalEdgeStyle;rounded=0;orthogonalLoop=1;jettySize=auto;html=1;" parent="WIyWlLk6GJQsqaUBKTNV-1" source="oGs9uQ9BPyMRuh5oc1LU-26" target="oGs9uQ9BPyMRuh5oc1LU-68" edge="1">
          <mxGeometry relative="1" as="geometry" />
        </mxCell>
        <mxCell id="oGs9uQ9BPyMRuh5oc1LU-71" value="" style="edgeStyle=orthogonalEdgeStyle;rounded=0;orthogonalLoop=1;jettySize=auto;html=1;" parent="WIyWlLk6GJQsqaUBKTNV-1" source="oGs9uQ9BPyMRuh5oc1LU-26" target="oGs9uQ9BPyMRuh5oc1LU-70" edge="1">
          <mxGeometry relative="1" as="geometry" />
        </mxCell>
        <mxCell id="oGs9uQ9BPyMRuh5oc1LU-26" value="Transfer the amount from Deptor to Creditor" style="whiteSpace=wrap;html=1;" parent="WIyWlLk6GJQsqaUBKTNV-1" vertex="1">
          <mxGeometry x="320" y="906" width="120" height="60" as="geometry" />
        </mxCell>
        <mxCell id="oGs9uQ9BPyMRuh5oc1LU-88" value="Wrong" style="edgeStyle=orthogonalEdgeStyle;rounded=0;orthogonalLoop=1;jettySize=auto;html=1;entryX=1;entryY=0.5;entryDx=0;entryDy=0;exitX=0;exitY=0.5;exitDx=0;exitDy=0;" parent="WIyWlLk6GJQsqaUBKTNV-1" source="oGs9uQ9BPyMRuh5oc1LU-33" target="oGs9uQ9BPyMRuh5oc1LU-36" edge="1">
          <mxGeometry relative="1" as="geometry">
            <mxPoint x="300" y="76" as="sourcePoint" />
            <Array as="points">
              <mxPoint x="270" y="76" />
              <mxPoint x="270" y="76" />
            </Array>
          </mxGeometry>
        </mxCell>
        <mxCell id="oGs9uQ9BPyMRuh5oc1LU-33" value="Check&lt;br&gt;username &amp;amp; password" style="rhombus;whiteSpace=wrap;html=1;fillColor=#f8cecc;strokeColor=#b85450;" parent="WIyWlLk6GJQsqaUBKTNV-1" vertex="1">
          <mxGeometry x="302.5" y="36" width="100" height="80" as="geometry" />
        </mxCell>
        <mxCell id="oGs9uQ9BPyMRuh5oc1LU-86" style="edgeStyle=orthogonalEdgeStyle;rounded=0;orthogonalLoop=1;jettySize=auto;html=1;exitX=0.5;exitY=0;exitDx=0;exitDy=0;entryX=0.5;entryY=0;entryDx=0;entryDy=0;" parent="WIyWlLk6GJQsqaUBKTNV-1" source="oGs9uQ9BPyMRuh5oc1LU-36" target="oGs9uQ9BPyMRuh5oc1LU-33" edge="1">
          <mxGeometry relative="1" as="geometry" />
        </mxCell>
        <mxCell id="oGs9uQ9BPyMRuh5oc1LU-36" value="Log-in Screen" style="rounded=0;whiteSpace=wrap;html=1;fillColor=#f8cecc;strokeColor=#b85450;" parent="WIyWlLk6GJQsqaUBKTNV-1" vertex="1">
          <mxGeometry x="100" y="46" width="120" height="60" as="geometry" />
        </mxCell>
        <mxCell id="oGs9uQ9BPyMRuh5oc1LU-39" value="Correct" style="endArrow=classic;html=1;rounded=0;exitX=0.5;exitY=1;exitDx=0;exitDy=0;" parent="WIyWlLk6GJQsqaUBKTNV-1" source="oGs9uQ9BPyMRuh5oc1LU-33" edge="1">
          <mxGeometry width="50" height="50" relative="1" as="geometry">
            <mxPoint x="530" y="126" as="sourcePoint" />
            <mxPoint x="353" y="156" as="targetPoint" />
          </mxGeometry>
        </mxCell>
        <mxCell id="oGs9uQ9BPyMRuh5oc1LU-98" style="edgeStyle=orthogonalEdgeStyle;rounded=0;orthogonalLoop=1;jettySize=auto;html=1;exitX=0.5;exitY=1;exitDx=0;exitDy=0;" parent="WIyWlLk6GJQsqaUBKTNV-1" source="oGs9uQ9BPyMRuh5oc1LU-45" target="oGs9uQ9BPyMRuh5oc1LU-93" edge="1">
          <mxGeometry relative="1" as="geometry" />
        </mxCell>
        <mxCell id="oGs9uQ9BPyMRuh5oc1LU-45" value="Choose Creditor and amount of transfer" style="rounded=0;whiteSpace=wrap;html=1;" parent="WIyWlLk6GJQsqaUBKTNV-1" vertex="1">
          <mxGeometry x="494" y="186" width="120" height="60" as="geometry" />
        </mxCell>
        <mxCell id="oGs9uQ9BPyMRuh5oc1LU-52" value="" style="edgeStyle=orthogonalEdgeStyle;rounded=0;orthogonalLoop=1;jettySize=auto;html=1;" parent="WIyWlLk6GJQsqaUBKTNV-1" source="oGs9uQ9BPyMRuh5oc1LU-48" target="oGs9uQ9BPyMRuh5oc1LU-51" edge="1">
          <mxGeometry relative="1" as="geometry" />
        </mxCell>
        <mxCell id="oGs9uQ9BPyMRuh5oc1LU-48" value="Wallet Queue" style="whiteSpace=wrap;html=1;rounded=0;" parent="WIyWlLk6GJQsqaUBKTNV-1" vertex="1">
          <mxGeometry x="494" y="366" width="120" height="60" as="geometry" />
        </mxCell>
        <mxCell id="oGs9uQ9BPyMRuh5oc1LU-51" value="Calculate Fee" style="whiteSpace=wrap;html=1;rounded=0;" parent="WIyWlLk6GJQsqaUBKTNV-1" vertex="1">
          <mxGeometry x="494" y="516" width="120" height="60" as="geometry" />
        </mxCell>
        <mxCell id="oGs9uQ9BPyMRuh5oc1LU-60" value="" style="edgeStyle=orthogonalEdgeStyle;rounded=0;orthogonalLoop=1;jettySize=auto;html=1;" parent="WIyWlLk6GJQsqaUBKTNV-1" source="oGs9uQ9BPyMRuh5oc1LU-53" target="oGs9uQ9BPyMRuh5oc1LU-59" edge="1">
          <mxGeometry relative="1" as="geometry" />
        </mxCell>
        <mxCell id="oGs9uQ9BPyMRuh5oc1LU-91" value="No" style="edgeStyle=orthogonalEdgeStyle;rounded=0;orthogonalLoop=1;jettySize=auto;html=1;exitX=0;exitY=0.5;exitDx=0;exitDy=0;entryX=1;entryY=1;entryDx=0;entryDy=0;" parent="WIyWlLk6GJQsqaUBKTNV-1" source="oGs9uQ9BPyMRuh5oc1LU-53" target="oGs9uQ9BPyMRuh5oc1LU-56" edge="1">
          <mxGeometry relative="1" as="geometry" />
        </mxCell>
        <mxCell id="oGs9uQ9BPyMRuh5oc1LU-53" value="Account LookUp" style="rhombus;whiteSpace=wrap;html=1;" parent="WIyWlLk6GJQsqaUBKTNV-1" vertex="1">
          <mxGeometry x="514" y="616" width="80" height="80" as="geometry" />
        </mxCell>
        <mxCell id="oGs9uQ9BPyMRuh5oc1LU-54" value="" style="endArrow=classic;html=1;rounded=0;entryX=0.5;entryY=0;entryDx=0;entryDy=0;exitX=0.5;exitY=1;exitDx=0;exitDy=0;" parent="WIyWlLk6GJQsqaUBKTNV-1" source="oGs9uQ9BPyMRuh5oc1LU-51" target="oGs9uQ9BPyMRuh5oc1LU-53" edge="1">
          <mxGeometry width="50" height="50" relative="1" as="geometry">
            <mxPoint x="390" y="666" as="sourcePoint" />
            <mxPoint x="440" y="616" as="targetPoint" />
          </mxGeometry>
        </mxCell>
        <mxCell id="oGs9uQ9BPyMRuh5oc1LU-56" value="Transfer rejected" style="whiteSpace=wrap;html=1;" parent="WIyWlLk6GJQsqaUBKTNV-1" vertex="1">
          <mxGeometry x="292.5" y="536" width="120" height="60" as="geometry" />
        </mxCell>
        <mxCell id="oGs9uQ9BPyMRuh5oc1LU-57" value="" style="endArrow=classic;html=1;rounded=0;exitX=0.5;exitY=0;exitDx=0;exitDy=0;entryX=0.5;entryY=1;entryDx=0;entryDy=0;" parent="WIyWlLk6GJQsqaUBKTNV-1" source="oGs9uQ9BPyMRuh5oc1LU-56" target="jiWPsRULAdNwWH0B6eo_-13" edge="1">
          <mxGeometry width="50" height="50" relative="1" as="geometry">
            <mxPoint x="390" y="286" as="sourcePoint" />
            <mxPoint x="440" y="236" as="targetPoint" />
          </mxGeometry>
        </mxCell>
        <mxCell id="oGs9uQ9BPyMRuh5oc1LU-63" value="" style="edgeStyle=orthogonalEdgeStyle;rounded=0;orthogonalLoop=1;jettySize=auto;html=1;" parent="WIyWlLk6GJQsqaUBKTNV-1" source="oGs9uQ9BPyMRuh5oc1LU-59" target="oGs9uQ9BPyMRuh5oc1LU-62" edge="1">
          <mxGeometry relative="1" as="geometry" />
        </mxCell>
        <mxCell id="oGs9uQ9BPyMRuh5oc1LU-92" value="No" style="edgeStyle=orthogonalEdgeStyle;rounded=0;orthogonalLoop=1;jettySize=auto;html=1;exitX=0;exitY=0.5;exitDx=0;exitDy=0;entryX=1;entryY=1;entryDx=0;entryDy=0;" parent="WIyWlLk6GJQsqaUBKTNV-1" source="oGs9uQ9BPyMRuh5oc1LU-59" target="oGs9uQ9BPyMRuh5oc1LU-56" edge="1">
          <mxGeometry relative="1" as="geometry" />
        </mxCell>
        <mxCell id="oGs9uQ9BPyMRuh5oc1LU-59" value="Balance Inquiry" style="rhombus;whiteSpace=wrap;html=1;" parent="WIyWlLk6GJQsqaUBKTNV-1" vertex="1">
          <mxGeometry x="514" y="726" width="80" height="80" as="geometry" />
        </mxCell>
        <mxCell id="oGs9uQ9BPyMRuh5oc1LU-65" value="" style="edgeStyle=orthogonalEdgeStyle;rounded=0;orthogonalLoop=1;jettySize=auto;html=1;" parent="WIyWlLk6GJQsqaUBKTNV-1" source="oGs9uQ9BPyMRuh5oc1LU-62" target="oGs9uQ9BPyMRuh5oc1LU-64" edge="1">
          <mxGeometry relative="1" as="geometry" />
        </mxCell>
        <mxCell id="oGs9uQ9BPyMRuh5oc1LU-62" value="Remove 1.5% from the debtor" style="whiteSpace=wrap;html=1;" parent="WIyWlLk6GJQsqaUBKTNV-1" vertex="1">
          <mxGeometry x="630" y="736" width="120" height="60" as="geometry" />
        </mxCell>
        <mxCell id="oGs9uQ9BPyMRuh5oc1LU-64" value="&lt;span style=&quot;color: rgb(0 , 0 , 0) ; font-family: &amp;#34;helvetica&amp;#34; ; font-size: 12px ; font-style: normal ; font-weight: 400 ; letter-spacing: normal ; text-align: center ; text-indent: 0px ; text-transform: none ; word-spacing: 0px ; background-color: rgb(248 , 249 , 250) ; display: inline ; float: none&quot;&gt;Remove 1.5% from the creditor&lt;/span&gt;" style="whiteSpace=wrap;html=1;" parent="WIyWlLk6GJQsqaUBKTNV-1" vertex="1">
          <mxGeometry x="630" y="826" width="120" height="60" as="geometry" />
        </mxCell>
        <mxCell id="oGs9uQ9BPyMRuh5oc1LU-67" value="" style="endArrow=classic;html=1;rounded=0;exitX=0.5;exitY=1;exitDx=0;exitDy=0;entryX=0.5;entryY=0;entryDx=0;entryDy=0;" parent="WIyWlLk6GJQsqaUBKTNV-1" source="oGs9uQ9BPyMRuh5oc1LU-64" target="oGs9uQ9BPyMRuh5oc1LU-19" edge="1">
          <mxGeometry width="50" height="50" relative="1" as="geometry">
            <mxPoint x="710" y="916" as="sourcePoint" />
            <mxPoint x="760" y="866" as="targetPoint" />
          </mxGeometry>
        </mxCell>
        <mxCell id="oGs9uQ9BPyMRuh5oc1LU-68" value="&lt;font style=&quot;font-size: 14px&quot;&gt;&lt;b style=&quot;font-weight: normal&quot; id=&quot;docs-internal-guid-dbb8c8f2-7fff-a67b-86fc-b061e086bc53&quot;&gt;&lt;span style=&quot;font-family: &amp;#34;arial&amp;#34; ; color: rgb(0 , 0 , 0) ; background-color: transparent ; font-weight: 400 ; font-style: normal ; font-variant: normal ; text-decoration: none ; vertical-align: baseline&quot;&gt;Exchange is saved to log file&lt;/span&gt;&lt;/b&gt;&lt;/font&gt;" style="whiteSpace=wrap;html=1;" parent="WIyWlLk6GJQsqaUBKTNV-1" vertex="1">
          <mxGeometry x="254" y="1026" width="120" height="60" as="geometry" />
        </mxCell>
        <mxCell id="oGs9uQ9BPyMRuh5oc1LU-70" value="&lt;font style=&quot;font-size: 14px&quot;&gt;Update Accounts&lt;/font&gt;" style="whiteSpace=wrap;html=1;" parent="WIyWlLk6GJQsqaUBKTNV-1" vertex="1">
          <mxGeometry x="390" y="1026" width="120" height="60" as="geometry" />
        </mxCell>
        <mxCell id="oGs9uQ9BPyMRuh5oc1LU-72" value="Payment Queue" style="whiteSpace=wrap;html=1;rounded=0;" parent="WIyWlLk6GJQsqaUBKTNV-1" vertex="1">
          <mxGeometry x="100" y="366" width="120" height="60" as="geometry" />
        </mxCell>
        <mxCell id="oGs9uQ9BPyMRuh5oc1LU-74" value="Account LookUp" style="rhombus;whiteSpace=wrap;html=1;" parent="WIyWlLk6GJQsqaUBKTNV-1" vertex="1">
          <mxGeometry x="120" y="486" width="80" height="80" as="geometry" />
        </mxCell>
        <mxCell id="oGs9uQ9BPyMRuh5oc1LU-75" value="Balance Inquiry" style="rhombus;whiteSpace=wrap;html=1;" parent="WIyWlLk6GJQsqaUBKTNV-1" vertex="1">
          <mxGeometry x="120" y="596" width="80" height="80" as="geometry" />
        </mxCell>
        <mxCell id="oGs9uQ9BPyMRuh5oc1LU-76" value="Remove fee from the debtor" style="whiteSpace=wrap;html=1;" parent="WIyWlLk6GJQsqaUBKTNV-1" vertex="1">
          <mxGeometry x="100" y="696" width="120" height="60" as="geometry" />
        </mxCell>
        <mxCell id="oGs9uQ9BPyMRuh5oc1LU-77" value="" style="endArrow=classic;html=1;rounded=0;exitX=0.5;exitY=1;exitDx=0;exitDy=0;entryX=0.5;entryY=0;entryDx=0;entryDy=0;" parent="WIyWlLk6GJQsqaUBKTNV-1" source="oGs9uQ9BPyMRuh5oc1LU-72" target="oGs9uQ9BPyMRuh5oc1LU-74" edge="1">
          <mxGeometry width="50" height="50" relative="1" as="geometry">
            <mxPoint x="380" y="496" as="sourcePoint" />
            <mxPoint x="430" y="446" as="targetPoint" />
          </mxGeometry>
        </mxCell>
        <mxCell id="oGs9uQ9BPyMRuh5oc1LU-78" value="No" style="endArrow=classic;html=1;rounded=0;exitX=1;exitY=0.5;exitDx=0;exitDy=0;entryX=0;entryY=0.5;entryDx=0;entryDy=0;" parent="WIyWlLk6GJQsqaUBKTNV-1" source="oGs9uQ9BPyMRuh5oc1LU-74" target="oGs9uQ9BPyMRuh5oc1LU-56" edge="1">
          <mxGeometry width="50" height="50" relative="1" as="geometry">
            <mxPoint x="380" y="566" as="sourcePoint" />
            <mxPoint x="290" y="536" as="targetPoint" />
          </mxGeometry>
        </mxCell>
        <mxCell id="oGs9uQ9BPyMRuh5oc1LU-79" value="" style="endArrow=classic;html=1;rounded=0;exitX=0.5;exitY=1;exitDx=0;exitDy=0;" parent="WIyWlLk6GJQsqaUBKTNV-1" source="oGs9uQ9BPyMRuh5oc1LU-74" target="oGs9uQ9BPyMRuh5oc1LU-75" edge="1">
          <mxGeometry width="50" height="50" relative="1" as="geometry">
            <mxPoint x="380" y="566" as="sourcePoint" />
            <mxPoint x="430" y="516" as="targetPoint" />
          </mxGeometry>
        </mxCell>
        <mxCell id="oGs9uQ9BPyMRuh5oc1LU-80" value="No" style="endArrow=classic;html=1;rounded=0;exitX=1;exitY=0.5;exitDx=0;exitDy=0;entryX=0;entryY=0.5;entryDx=0;entryDy=0;" parent="WIyWlLk6GJQsqaUBKTNV-1" source="oGs9uQ9BPyMRuh5oc1LU-75" target="oGs9uQ9BPyMRuh5oc1LU-56" edge="1">
          <mxGeometry width="50" height="50" relative="1" as="geometry">
            <mxPoint x="380" y="566" as="sourcePoint" />
            <mxPoint x="430" y="516" as="targetPoint" />
          </mxGeometry>
        </mxCell>
        <mxCell id="oGs9uQ9BPyMRuh5oc1LU-81" value="" style="endArrow=classic;html=1;rounded=0;exitX=0.5;exitY=1;exitDx=0;exitDy=0;" parent="WIyWlLk6GJQsqaUBKTNV-1" source="oGs9uQ9BPyMRuh5oc1LU-75" target="oGs9uQ9BPyMRuh5oc1LU-76" edge="1">
          <mxGeometry width="50" height="50" relative="1" as="geometry">
            <mxPoint x="380" y="566" as="sourcePoint" />
            <mxPoint x="430" y="516" as="targetPoint" />
          </mxGeometry>
        </mxCell>
        <mxCell id="oGs9uQ9BPyMRuh5oc1LU-85" style="edgeStyle=orthogonalEdgeStyle;rounded=0;orthogonalLoop=1;jettySize=auto;html=1;exitX=0.5;exitY=1;exitDx=0;exitDy=0;entryX=0;entryY=0.5;entryDx=0;entryDy=0;" parent="WIyWlLk6GJQsqaUBKTNV-1" source="oGs9uQ9BPyMRuh5oc1LU-82" target="oGs9uQ9BPyMRuh5oc1LU-26" edge="1">
          <mxGeometry relative="1" as="geometry" />
        </mxCell>
        <mxCell id="oGs9uQ9BPyMRuh5oc1LU-82" value="Transfer this fee to Bank&#39;s Account" style="whiteSpace=wrap;html=1;" parent="WIyWlLk6GJQsqaUBKTNV-1" vertex="1">
          <mxGeometry x="100" y="776" width="120" height="60" as="geometry" />
        </mxCell>
        <mxCell id="oGs9uQ9BPyMRuh5oc1LU-83" value="" style="endArrow=classic;html=1;rounded=0;entryX=0.5;entryY=0;entryDx=0;entryDy=0;exitX=0.5;exitY=1;exitDx=0;exitDy=0;" parent="WIyWlLk6GJQsqaUBKTNV-1" source="oGs9uQ9BPyMRuh5oc1LU-76" target="oGs9uQ9BPyMRuh5oc1LU-82" edge="1">
          <mxGeometry width="50" height="50" relative="1" as="geometry">
            <mxPoint x="380" y="876" as="sourcePoint" />
            <mxPoint x="430" y="826" as="targetPoint" />
          </mxGeometry>
        </mxCell>
        <mxCell id="oGs9uQ9BPyMRuh5oc1LU-99" style="edgeStyle=orthogonalEdgeStyle;rounded=0;orthogonalLoop=1;jettySize=auto;html=1;exitX=0.5;exitY=1;exitDx=0;exitDy=0;entryX=0.5;entryY=0;entryDx=0;entryDy=0;" parent="WIyWlLk6GJQsqaUBKTNV-1" source="oGs9uQ9BPyMRuh5oc1LU-93" target="oGs9uQ9BPyMRuh5oc1LU-48" edge="1">
          <mxGeometry relative="1" as="geometry" />
        </mxCell>
        <mxCell id="oGs9uQ9BPyMRuh5oc1LU-103" value="No" style="edgeStyle=orthogonalEdgeStyle;rounded=0;orthogonalLoop=1;jettySize=auto;html=1;exitX=0;exitY=0.5;exitDx=0;exitDy=0;entryX=1;entryY=1;entryDx=0;entryDy=0;" parent="WIyWlLk6GJQsqaUBKTNV-1" source="oGs9uQ9BPyMRuh5oc1LU-93" target="jiWPsRULAdNwWH0B6eo_-13" edge="1">
          <mxGeometry relative="1" as="geometry" />
        </mxCell>
        <mxCell id="oGs9uQ9BPyMRuh5oc1LU-93" value="&#xa;&#xa;&lt;span style=&quot;color: rgb(0, 0, 0); font-family: helvetica; font-size: 12px; font-style: normal; font-weight: 400; letter-spacing: normal; text-align: center; text-indent: 0px; text-transform: none; word-spacing: 0px; background-color: rgb(248, 249, 250); display: inline; float: none;&quot;&gt;Validate Transaction Data&lt;/span&gt;&#xa;&#xa;" style="rhombus;whiteSpace=wrap;html=1;" parent="WIyWlLk6GJQsqaUBKTNV-1" vertex="1">
          <mxGeometry x="514" y="266" width="80" height="80" as="geometry" />
        </mxCell>
        <mxCell id="oGs9uQ9BPyMRuh5oc1LU-102" value="No" style="edgeStyle=orthogonalEdgeStyle;rounded=0;orthogonalLoop=1;jettySize=auto;html=1;exitX=1;exitY=0.5;exitDx=0;exitDy=0;entryX=0;entryY=1;entryDx=0;entryDy=0;" parent="WIyWlLk6GJQsqaUBKTNV-1" source="oGs9uQ9BPyMRuh5oc1LU-94" target="jiWPsRULAdNwWH0B6eo_-13" edge="1">
          <mxGeometry relative="1" as="geometry" />
        </mxCell>
        <mxCell id="oGs9uQ9BPyMRuh5oc1LU-94" value="Validate Transaction Data" style="rhombus;whiteSpace=wrap;html=1;" parent="WIyWlLk6GJQsqaUBKTNV-1" vertex="1">
          <mxGeometry x="120" y="266" width="80" height="80" as="geometry" />
        </mxCell>
        <mxCell id="oGs9uQ9BPyMRuh5oc1LU-95" value="" style="endArrow=classic;html=1;rounded=0;exitX=0.5;exitY=1;exitDx=0;exitDy=0;entryX=0.5;entryY=0;entryDx=0;entryDy=0;" parent="WIyWlLk6GJQsqaUBKTNV-1" source="oGs9uQ9BPyMRuh5oc1LU-94" target="oGs9uQ9BPyMRuh5oc1LU-72" edge="1">
          <mxGeometry width="50" height="50" relative="1" as="geometry">
            <mxPoint x="380" y="396" as="sourcePoint" />
            <mxPoint x="430" y="346" as="targetPoint" />
          </mxGeometry>
        </mxCell>
        <mxCell id="WTTVQExVaNw6_eonghrO-0" value="Edge&lt;br&gt;Integration" style="endArrow=none;html=1;rounded=0;" parent="WIyWlLk6GJQsqaUBKTNV-1" edge="1">
          <mxGeometry x="0.3091" width="50" height="50" relative="1" as="geometry">
            <mxPoint x="80" y="456" as="sourcePoint" />
            <mxPoint x="630" y="456" as="targetPoint" />
            <mxPoint as="offset" />
          </mxGeometry>
        </mxCell>
      </root>
    </mxGraphModel>
  </diagram>
</mxfile>
